<mxfile host="app.diagrams.net" agent="Mozilla/5.0 (Windows NT 10.0; Win64; x64) AppleWebKit/537.36 (KHTML, like Gecko) Chrome/123.0.0.0 Safari/537.36" version="24.7.8">
  <diagram name="Página-1" id="7p2P_5-szaBPHfSu4ZvB">
    <mxGraphModel>
      <root>
        <mxCell id="0" />
        <mxCell id="1" parent="0" />
        <mxCell id="2" value="Certificados na Nuvem" style="rounded=1;absoluteArcSize=1;arcSize=14;whiteSpace=wrap;strokeWidth=2;" vertex="1" parent="1">
          <mxGeometry y="84" width="177" height="34" as="geometry" />
        </mxCell>
        <mxCell id="3" value="Verificação de Status" style="rhombus;strokeWidth=2;whiteSpace=wrap;" vertex="1" parent="1">
          <mxGeometry x="227" width="201" height="201" as="geometry" />
        </mxCell>
        <mxCell id="4" value="Download Certificado" style="whiteSpace=wrap;strokeWidth=2;" vertex="1" parent="1">
          <mxGeometry x="579" width="170" height="34" as="geometry" />
        </mxCell>
        <mxCell id="5" value="Renovar Certificado" style="whiteSpace=wrap;strokeWidth=2;" vertex="1" parent="1">
          <mxGeometry x="585" y="84" width="157" height="34" as="geometry" />
        </mxCell>
        <mxCell id="6" value="Analisar Motivos de Revogação" style="whiteSpace=wrap;strokeWidth=2;" vertex="1" parent="1">
          <mxGeometry x="546" y="168" width="234" height="34" as="geometry" />
        </mxCell>
        <mxCell id="7" value="" style="curved=1;startArrow=none;endArrow=block;exitX=1;exitY=0.5;entryX=0;entryY=0.5;" edge="1" parent="1" source="2" target="3">
          <mxGeometry relative="1" as="geometry">
            <Array as="points" />
          </mxGeometry>
        </mxCell>
        <mxCell id="8" value="Válido" style="curved=1;startArrow=none;endArrow=block;exitX=1;exitY=0.24;entryX=0;entryY=0.5;" edge="1" parent="1" source="3" target="4">
          <mxGeometry relative="1" as="geometry">
            <Array as="points">
              <mxPoint x="487" y="17" />
            </Array>
          </mxGeometry>
        </mxCell>
        <mxCell id="9" value="Expirado" style="curved=1;startArrow=none;endArrow=block;exitX=1;exitY=0.5;entryX=0;entryY=0.5;" edge="1" parent="1" source="3" target="5">
          <mxGeometry relative="1" as="geometry">
            <Array as="points" />
          </mxGeometry>
        </mxCell>
        <mxCell id="10" value="Revogado" style="curved=1;startArrow=none;endArrow=block;exitX=1;exitY=0.77;entryX=0;entryY=0.5;" edge="1" parent="1" source="3" target="6">
          <mxGeometry relative="1" as="geometry">
            <Array as="points">
              <mxPoint x="487" y="185" />
            </Array>
          </mxGeometry>
        </mxCell>
      </root>
    </mxGraphModel>
  </diagram>
</mxfile>
